<?xml version="1.0"?>
<svg xmlns="http://www.w3.org/2000/svg" xmlns:xlink="http://www.w3.org/1999/xlink" xmlns:svgjs="http://svgjs.com/svgjs" version="1.1" width="512" height="512" x="0" y="0" viewBox="0 0 512.005 512.005" style="enable-background:new 0 0 512 512" xml:space="preserve" class=""><g>
<path xmlns="http://www.w3.org/2000/svg" style="" d="M415.004,347.726V503.76c0,4.553-3.688,8.242-8.242,8.242H105.243c-4.553,0-8.242-3.688-8.242-8.242  V347.726c0-28.609,23.19-51.799,51.799-51.799h214.406C391.814,295.927,415.004,319.117,415.004,347.726z" fill="#699fcc" data-original="#699fcc"/>
<g xmlns="http://www.w3.org/2000/svg">
	<rect x="248.281" y="449.345" style="" width="15.453" height="62.66" fill="#4c88ba" data-original="#4c88ba"/>
	<path style="" d="M350.907,295.923c-25.382,22.117-58.583,35.514-94.904,35.514s-69.522-13.396-94.904-35.514H350.907   z" fill="#4c88ba" data-original="#4c88ba"/>
</g>
<g xmlns="http://www.w3.org/2000/svg">
	<circle style="" cx="376.469" cy="183.285" r="35.538" fill="#fbc176" data-original="#fbc176"/>
	<circle style="" cx="135.536" cy="183.285" r="35.538" fill="#fbc176" data-original="#fbc176"/>
</g>
<path xmlns="http://www.w3.org/2000/svg" style="" d="M299.577,421.592l-38.337,45.237c-2.742,3.236-7.734,3.236-10.477,0l-38.337-45.237  c-1.388-1.638-1.93-3.83-1.465-5.927l19.2-86.542l5.371-24.208c0.697-3.142,3.484-5.379,6.704-5.379h27.53  c3.219,0,6.006,2.237,6.704,5.379l5.371,24.208l19.2,86.542C301.506,417.762,300.964,419.954,299.577,421.592z" fill="#efeadd" data-original="#efeadd"/>
<path xmlns="http://www.w3.org/2000/svg" style="" d="M281.843,329.123c-8.385,1.517-17.022,2.313-25.841,2.313c-8.819,0-17.456-0.795-25.841-2.313  l6.565-29.587h38.55L281.843,329.123z" fill="#d4d0ba" data-original="#d4d0ba"/>
<path xmlns="http://www.w3.org/2000/svg" style="" d="M376.47,186.875c0,6.939-0.59,13.745-1.723,20.359c-9.661,56.837-59.15,100.109-118.745,100.109  c-62.077,0-113.191-46.959-119.746-107.289c-0.482-4.325-0.723-8.722-0.723-13.179c0-66.522,53.933-120.468,120.468-120.468  c9.866,0,19.455,1.181,28.635,3.434c30.165,7.348,55.885,26.069,72.366,51.356C369.314,140.085,376.47,162.649,376.47,186.875z" fill="#ffd19f" data-original="#ffd19f" class=""/>
<path xmlns="http://www.w3.org/2000/svg" style="" d="M357.002,121.195c-16.48-25.286-42.2-44.007-72.366-51.356c-9.18-2.253-18.769-3.434-28.635-3.434  c-66.535,0-120.468,53.945-120.468,120.468c0,4.458,0.241,8.855,0.723,13.179c0,0,9.589-25.189,32.105-41.164  c10.23-7.258,21.841-11.95,43.477-11.95c6.77,0,14.083,0.326,21.829,0.662c8.975,0.398,18.263,0.808,28.213,0.808  c15.926,0,29.563-1.06,42.922-3.324c12.372-2.096,23.105-5.361,32.213-9.782c26.503,18.769,37.73,71.932,37.73,71.932  c1.132-6.614,1.723-13.42,1.723-20.359C376.47,162.649,369.314,140.085,357.002,121.195z" fill="#fbc176" data-original="#fbc176"/>
<path xmlns="http://www.w3.org/2000/svg" style="" d="M349.53,37.143c0,0,48.625,19.048,49.829,79.282s-22.889,70.456-22.889,70.456  s-8.264-68.046-52.921-82.502S312.952,21.709,349.53,37.143z" fill="#4e8ad1" data-original="#4e8ad1"/>
<path xmlns="http://www.w3.org/2000/svg" style="" d="M301.78,127.268c-63.848,10.842-114.444-13.251-144.562,20.479  c-29.611,33.153-21.961,48.85-21.696,49.38c-0.65-0.662-23.998-24.912-18.058-84.316c0.097-0.927,0.193-1.855,0.301-2.771  c6.542-58.211,32.55-81.653,53.307-87.581l-3.303-11.743c-0.943-3.35,1.932-6.537,5.359-5.931  c11.02,1.947,32.878,4.295,56.419-1.601c25.455-6.373,82.581-4.951,110.011,20.913c8.878,8.349,14.637,19.263,15.227,33.297  C355.593,76.502,365.628,116.426,301.78,127.268z" fill="#3c6eaa" data-original="#3c6eaa" class=""/>
<path xmlns="http://www.w3.org/2000/svg" style="" d="M301.78,127.268c-63.848,10.842-114.444-13.251-144.562,20.479  c-29.611,33.153-21.961,48.85-21.696,49.38c-0.65-0.662-23.998-24.912-18.058-84.316c0.097-0.927,0.193-1.855,0.301-2.771  c2.566,6.951,8.95,21.805,17.769,26.057c0,0,14.058-32.117,44.573-33.731l-2.812-4.747c-2.143-3.617,1.274-7.976,5.297-6.756  c31.962,9.693,121.284,31.812,150.112-13.385c12.445-19.516,12.287-37.839,6.855-53.379c8.878,8.349,14.637,19.263,15.227,33.297  C355.593,76.502,365.628,116.426,301.78,127.268z" fill="#365889" data-original="#365889"/>
<g xmlns="http://www.w3.org/2000/svg">
	<path style="" d="M362.35,409.166V512h-15.453V409.166c0-4.275,3.461-7.727,7.727-7.727   C358.899,401.439,362.35,404.891,362.35,409.166z" fill="#4c88ba" data-original="#4c88ba"/>
	<path style="" d="M165.108,409.166V512h-15.453V409.166c0-4.275,3.451-7.727,7.727-7.727   C161.646,401.439,165.108,404.891,165.108,409.166z" fill="#4c88ba" data-original="#4c88ba"/>
</g>
<g xmlns="http://www.w3.org/2000/svg">
	<path style="" d="M206.911,185.992h-1.204c-4.267,0-7.727-3.459-7.727-7.727c0-4.267,3.459-7.727,7.727-7.727h1.204   c4.267,0,7.727,3.459,7.727,7.727C214.638,182.533,211.178,185.992,206.911,185.992z" fill="#365889" data-original="#365889"/>
	<path style="" d="M306.298,185.992h-1.204c-4.267,0-7.727-3.459-7.727-7.727c0-4.267,3.459-7.727,7.727-7.727h1.204   c4.267,0,7.727,3.459,7.727,7.727C314.024,182.533,310.565,185.992,306.298,185.992z" fill="#365889" data-original="#365889"/>
</g>
<path xmlns="http://www.w3.org/2000/svg" style="" d="M285.949,225.44c5.222,0,9.017,4.953,7.679,10.001c-4.414,16.651-19.587,28.923-37.627,28.923  s-33.213-12.272-37.627-28.923c-1.338-5.048,2.457-10.001,7.679-10.001L285.949,225.44L285.949,225.44z" fill="#dd6352" data-original="#dd6352" class=""/>
<g xmlns="http://www.w3.org/2000/svg">
</g>
<g xmlns="http://www.w3.org/2000/svg">
</g>
<g xmlns="http://www.w3.org/2000/svg">
</g>
<g xmlns="http://www.w3.org/2000/svg">
</g>
<g xmlns="http://www.w3.org/2000/svg">
</g>
<g xmlns="http://www.w3.org/2000/svg">
</g>
<g xmlns="http://www.w3.org/2000/svg">
</g>
<g xmlns="http://www.w3.org/2000/svg">
</g>
<g xmlns="http://www.w3.org/2000/svg">
</g>
<g xmlns="http://www.w3.org/2000/svg">
</g>
<g xmlns="http://www.w3.org/2000/svg">
</g>
<g xmlns="http://www.w3.org/2000/svg">
</g>
<g xmlns="http://www.w3.org/2000/svg">
</g>
<g xmlns="http://www.w3.org/2000/svg">
</g>
<g xmlns="http://www.w3.org/2000/svg">
</g>
</g></svg>
